<svg width="32" height="32" viewBox="0 0 32 32" fill="none" xmlns="http://www.w3.org/2000/svg">
<path d="M23.2 15.8503C25.1493 15.8503 27.0188 16.6243 28.3972 18.0027C29.7756 19.3811 30.5496 21.2506 30.5496 23.2C30.5496 25.1493 29.7756 27.0188 28.3972 28.3972C27.0188 29.7756 25.1493 30.5496 23.2 30.5496C21.2506 30.5496 19.3811 29.7756 18.0027 28.3972C16.6243 27.0188 15.8503 25.1493 15.8503 23.2C15.8503 21.2506 16.6243 19.3811 18.0027 18.0027C19.3811 16.6243 21.2506 15.8503 23.2 15.8503ZM16.7292 17.45L16.5271 17.6951C16.1277 18.1794 15.7825 18.704 15.4919 19.2683L15.45 19.3503H6.41479C5.59919 19.3503 4.95016 19.9988 4.94995 20.7996C4.94995 22.8381 5.91514 24.3503 7.55737 25.3982C9.23763 26.4707 11.6421 27.0496 14.4001 27.0496C14.7187 27.0496 15.0319 27.042 15.3396 27.0261L15.4373 27.0212L15.4812 27.1082C15.7521 27.6426 16.0776 28.1478 16.4529 28.615L16.6267 28.8318L16.3503 28.8582C15.7129 28.9194 15.0628 28.9499 14.4001 28.95C11.4142 28.95 8.61781 28.3291 6.53491 27.0017C4.41419 25.6481 3.04956 23.5625 3.04956 20.7996C3.04961 20.3585 3.13715 19.9217 3.3064 19.5144C3.47569 19.107 3.72421 18.7368 4.03687 18.4255C4.34947 18.1144 4.72062 17.8683 5.12866 17.7009C5.53674 17.5335 5.97372 17.448 6.41479 17.45H16.7292ZM23.2 19.3503C23.0276 19.3503 22.8619 19.4189 22.74 19.5408C22.6184 19.6626 22.5496 19.8276 22.5496 19.9998V22.5496H19.9998C19.8276 22.5496 19.6626 22.6184 19.5408 22.74C19.4189 22.8619 19.3503 23.0276 19.3503 23.2C19.3503 23.3723 19.4189 23.538 19.5408 23.6599C19.6626 23.7815 19.8276 23.8503 19.9998 23.8503H22.5496V26.4001C22.5496 26.5723 22.6184 26.7373 22.74 26.8591C22.8619 26.981 23.0276 27.0496 23.2 27.0496C23.3723 27.0496 23.538 26.981 23.6599 26.8591C23.7815 26.7373 23.8503 26.5723 23.8503 26.4001V23.8503H26.4001C26.5723 23.8503 26.7373 23.7815 26.8591 23.6599C26.981 23.538 27.0496 23.3723 27.0496 23.2C27.0496 23.0276 26.981 22.8619 26.8591 22.74C26.7373 22.6184 26.5723 22.5496 26.4001 22.5496H23.8503V19.9998C23.8503 19.8276 23.7815 19.6626 23.6599 19.5408C23.538 19.4189 23.3723 19.3503 23.2 19.3503ZM14.4001 3.04956C16.1372 3.04961 17.8037 3.74019 19.032 4.96851C20.2602 6.19684 20.95 7.86331 20.95 9.60034C20.9498 11.3372 20.26 13.003 19.032 14.2312C17.8037 15.4595 16.1372 16.1501 14.4001 16.1501C12.663 16.1501 10.9967 15.4596 9.76831 14.2312C8.54016 13.0029 7.85045 11.3373 7.85034 9.60034C7.85034 7.86322 8.54001 6.19686 9.76831 4.96851C10.9967 3.74014 12.663 3.04956 14.4001 3.04956ZM14.4001 4.94995C13.1669 4.94995 11.9841 5.44021 11.1121 6.31226C10.2401 7.18429 9.74976 8.36713 9.74976 9.60034C9.74986 10.8335 10.2401 12.0165 11.1121 12.8884C11.9841 13.7603 13.167 14.2498 14.4001 14.2498C15.6333 14.2497 16.8162 13.7604 17.6882 12.8884C18.5602 12.0165 19.0495 10.8335 19.0496 9.60034C19.0496 8.36722 18.5601 7.18427 17.6882 6.31226C16.8162 5.44026 15.6333 4.95 14.4001 4.94995Z" fill="#2684FF" stroke="#2684FF" stroke-width="0.3"/>
</svg>
