<svg width="24" height="24" viewBox="0 0 24 24" fill="none" xmlns="http://www.w3.org/2000/svg">
<path d="M11.755 2.91382C13.9718 2.91382 16.2221 2.82871 18.4484 2.91382L18.4474 2.91479C18.8073 2.92384 19.1618 3.00379 19.4903 3.15112C19.8191 3.29857 20.1152 3.51017 20.3614 3.77319C20.6077 4.03619 20.7994 4.34564 20.9249 4.68335C21.0497 5.01915 21.1067 5.37621 21.0929 5.73413L21.0939 18.4324V18.4363C21.0836 18.8013 21.0005 19.1608 20.8487 19.4929C20.697 19.8251 20.4793 20.1231 20.2101 20.3699C19.9407 20.6166 19.6246 20.8072 19.2804 20.9294C18.9365 21.0515 18.5714 21.1033 18.2071 21.0818C16.0565 21.0937 13.9039 21.0818 11.755 21.0818C11.5826 21.0818 11.4169 21.0133 11.295 20.8914C11.1734 20.7696 11.1047 20.6045 11.1046 20.4324C11.1046 20.2601 11.1733 20.0943 11.295 19.9724C11.4169 19.8505 11.5826 19.782 11.755 19.782C13.958 19.782 16.154 19.814 18.3527 19.782C18.8646 19.7746 19.2179 19.5805 19.4464 19.2859C19.6787 18.9862 19.7941 18.5664 19.7941 18.0935V5.62671C19.8009 5.34255 19.7209 5.06232 19.5646 4.82495C19.4092 4.58916 19.1855 4.40671 18.9239 4.30054C18.5995 4.21296 18.2616 4.18369 17.9269 4.21362L17.9142 4.2146V4.21362H11.755C11.5826 4.21362 11.4169 4.14509 11.295 4.02319C11.1734 3.9014 11.1047 3.73633 11.1046 3.56421C11.1046 3.39189 11.1732 3.22613 11.295 3.10425C11.4169 2.98235 11.5826 2.91382 11.755 2.91382Z" fill="#626368" stroke="#626368" stroke-width="0.3"/>
<path d="M11.7723 7.68726C11.9 7.6862 12.0239 7.72353 12.1297 7.79175L12.2293 7.86987L12.2313 7.87183L15.8992 11.5388L15.9744 11.6277C16.0372 11.7186 16.072 11.8258 16.0789 11.9373H16.0809L16.0867 11.9783L16.0897 11.9998L16.0867 12.0212L16.0809 12.0632L16.0789 12.0623C16.0697 12.213 16.0074 12.3558 15.8992 12.4617L15.8982 12.4607L12.2293 16.1296C12.1068 16.248 11.9426 16.3137 11.7723 16.3123C11.6018 16.3108 11.4387 16.2423 11.3182 16.1218C11.1977 16.0013 11.1292 15.8382 11.1277 15.6677C11.1263 15.4974 11.192 15.3332 11.3104 15.2107L11.3123 15.2087L13.8719 12.6501H3.492C3.31961 12.6501 3.15393 12.5816 3.03204 12.4597C2.91021 12.3378 2.84161 12.1721 2.84161 11.9998C2.84167 11.8276 2.91042 11.6626 3.03204 11.5408C3.15393 11.4189 3.31961 11.3503 3.492 11.3503H13.8719L11.3104 8.78882C11.192 8.66624 11.1263 8.50218 11.1277 8.33179C11.1293 8.16144 11.1977 7.99815 11.3182 7.87769C11.4387 7.75732 11.602 7.68874 11.7723 7.68726Z" fill="#626368" stroke="#626368" stroke-width="0.3"/>
</svg>
