<svg width="20" height="20" viewBox="0 0 20 20" fill="none" xmlns="http://www.w3.org/2000/svg">
<path d="M3.33337 1.66667V18.3333L5.00004 17.5L6.66671 18.3333L8.33337 17.5L10 18.3333L11.6667 17.5L13.3334 18.3333L15 17.5L16.6667 18.3333V1.66667L15 2.5L13.3334 1.66667L11.6667 2.5L10 1.66667L8.33337 2.5L6.66671 1.66667L5.00004 2.5L3.33337 1.66667Z" stroke="#222224" stroke-width="1.33333" stroke-linecap="round" stroke-linejoin="round"/>
<path d="M13.3333 6.66666H8.33329C7.89127 6.66666 7.46734 6.84226 7.15478 7.15482C6.84222 7.46738 6.66663 7.8913 6.66663 8.33333C6.66663 8.77536 6.84222 9.19928 7.15478 9.51184C7.46734 9.8244 7.89127 10 8.33329 10H11.6666C12.1087 10 12.5326 10.1756 12.8451 10.4882C13.1577 10.8007 13.3333 11.2246 13.3333 11.6667C13.3333 12.1087 13.1577 12.5326 12.8451 12.8452C12.5326 13.1577 12.1087 13.3333 11.6666 13.3333H6.66663" stroke="#222224" stroke-width="1.33333" stroke-linecap="round" stroke-linejoin="round"/>
<path d="M10 14.5833V5.41666" stroke="#222224" stroke-width="1.33333" stroke-linecap="round" stroke-linejoin="round"/>
</svg>
