<svg width="24" height="23" viewBox="0 0 24 23" fill="none" xmlns="http://www.w3.org/2000/svg">
<mask id="mask0_891_5921" style="mask-type:alpha" maskUnits="userSpaceOnUse" x="0" y="0" width="24" height="23">
<rect width="24" height="23" fill="#D9D9D9"/>
</mask>
<g mask="url(#mask0_891_5921)">
<path d="M12 15.3333C13.25 15.3333 14.3125 14.914 15.1875 14.0754C16.0625 13.2369 16.5 12.2187 16.5 11.0208C16.5 9.82283 16.0625 8.80461 15.1875 7.96606C14.3125 7.12752 13.25 6.70825 12 6.70825C10.75 6.70825 9.6875 7.12752 8.8125 7.96606C7.9375 8.80461 7.5 9.82283 7.5 11.0208C7.5 12.2187 7.9375 13.2369 8.8125 14.0754C9.6875 14.914 10.75 15.3333 12 15.3333ZM12 13.6083C11.25 13.6083 10.6125 13.3567 10.0875 12.8536C9.5625 12.3504 9.3 11.7395 9.3 11.0208C9.3 10.302 9.5625 9.69106 10.0875 9.18794C10.6125 8.68481 11.25 8.43325 12 8.43325C12.75 8.43325 13.3875 8.68481 13.9125 9.18794C14.4375 9.69106 14.7 10.302 14.7 11.0208C14.7 11.7395 14.4375 12.3504 13.9125 12.8536C13.3875 13.3567 12.75 13.6083 12 13.6083ZM12 18.2083C9.56667 18.2083 7.35 17.5574 5.35 16.2556C3.35 14.9539 1.9 13.2089 1 11.0208C1.9 8.83256 3.35 7.08759 5.35 5.78586C7.35 4.48412 9.56667 3.83325 12 3.83325C14.4333 3.83325 16.65 4.48412 18.65 5.78586C20.65 7.08759 22.1 8.83256 23 11.0208C22.1 13.2089 20.65 14.9539 18.65 16.2556C16.65 17.5574 14.4333 18.2083 12 18.2083Z" fill="#1C1B1F" fill-opacity="0.2"/>
</g>
</svg>
