<svg width="140" height="129" viewBox="0 0 140 129" fill="none" xmlns="http://www.w3.org/2000/svg">
<path opacity="0.3" d="M51.5579 49.1577H7.16033C5.71975 49.1577 4.552 50.3256 4.552 51.766V70.2638C4.552 71.7043 5.71975 72.8722 7.16033 72.8722H11.7707C11.5031 74.9085 11.1529 77.8295 11.3449 77.8295C11.5495 77.8295 13.7869 74.7566 15.1396 72.8722H51.5578C52.9984 72.8722 54.1661 71.7043 54.1661 70.2638V51.766C54.1662 50.3256 52.9985 49.1577 51.5579 49.1577Z" fill="#DAEEF7"/>
<path d="M53.6802 44.2412H9.28264C7.84206 44.2412 6.67432 45.409 6.67432 46.8495V65.3472C6.67432 66.7877 7.84206 67.9556 9.28264 67.9556H13.893C13.6254 69.9919 13.2751 72.9129 13.4673 72.9129C13.6718 72.9129 15.9092 69.84 17.2619 67.9556H53.6801C55.1207 67.9556 56.2884 66.7877 56.2884 65.3472V46.8495C56.2885 45.409 55.1208 44.2412 53.6802 44.2412Z" fill="#C3DDFF"/>
<path d="M19.8925 60.787C22.4461 58.2334 22.4461 54.0932 19.8925 51.5397C17.3389 48.9861 13.1987 48.9861 10.6452 51.5397C8.09157 54.0932 8.09157 58.2334 10.6452 60.787C13.1987 63.3406 17.3389 63.3406 19.8925 60.787Z" fill="white"/>
<path d="M16.3052 59.4578H14.3853V61.3749H16.3052V59.4578Z" fill="#E6F1FF"/>
<path d="M16.3052 60.6071V59.4578H14.3853V60.4356C14.7986 60.6572 15.4106 60.785 16.3052 60.6071Z" fill="#87ABFF"/>
<path d="M19.3328 56.0265C19.1325 55.9279 18.9 55.9454 18.6895 56.0519C18.7619 54.1603 17.2168 52.5694 15.2708 52.6366C13.3248 52.5694 11.7798 54.1603 11.852 56.0519C11.6415 55.9453 11.409 55.9278 11.2086 56.0265C10.8243 56.2158 10.7049 56.7581 10.9418 57.2377C11.1789 57.7174 11.6825 57.9528 12.0669 57.7636C12.1203 57.7373 12.168 57.7036 12.2109 57.6649C12.4311 59.2287 13.7377 60.401 15.2708 60.3792C16.8038 60.401 18.1105 59.2287 18.3308 57.6649C18.3737 57.7036 18.4214 57.7373 18.4747 57.7636C18.8591 57.9528 19.3627 57.7174 19.5998 57.2377C19.8367 56.7581 19.7172 56.2158 19.3328 56.0265Z" fill="#E6F1FF"/>
<path d="M12.9327 51.8872C12.9327 51.8872 13.8962 51.0716 16.0863 51.2034C18.2765 51.3351 18.6934 52.4781 18.8176 54.1101L18.6894 56.0521C18.6894 56.0521 18.1209 55.4675 17.3803 53.8463C17.3803 53.8463 16.154 55.2224 15.6199 55.0594C15.0858 54.8964 15.8219 53.9056 15.8219 53.9056C15.8219 53.9056 13.3235 56.0554 11.8519 56.0521C11.8519 56.0521 11.0733 53.5363 12.1662 52.6132C12.1662 52.6132 11.3429 52.6525 11.2994 52.4905C11.2558 52.3287 11.692 52.0864 12.4835 52.1779C12.4835 52.1779 11.9196 51.0748 12.2346 50.96C12.5495 50.8452 12.9327 51.8872 12.9327 51.8872Z" fill="#2684FF"/>
<path d="M16.5268 58.2607C16.4424 58.64 16.0084 58.938 15.4763 58.9543C14.9442 58.9706 14.4926 58.6995 14.3853 58.3262L16.5268 58.2607Z" fill="white"/>
<path d="M49.8272 50.7075H24.3171C24.1749 50.7075 24.0596 50.5923 24.0596 50.4501V49.8288C24.0596 49.6866 24.1749 49.5713 24.3171 49.5713H49.8272C49.9694 49.5713 50.0847 49.6866 50.0847 49.8288V50.4501C50.0847 50.5924 49.9695 50.7075 49.8272 50.7075Z" fill="white"/>
<path d="M29.9483 53.7062H24.3171C24.1749 53.7062 24.0596 53.5909 24.0596 53.4486V52.8273C24.0596 52.6851 24.1749 52.5698 24.3171 52.5698H29.9483C30.0905 52.5698 30.2057 52.6851 30.2057 52.8273V53.4486C30.2057 53.5909 30.0905 53.7062 29.9483 53.7062Z" fill="white"/>
<path d="M49.8271 53.7062H32.7827C32.6404 53.7062 32.5251 53.5909 32.5251 53.4486V52.8273C32.5251 52.6851 32.6404 52.5698 32.7827 52.5698H49.8271C49.9693 52.5698 50.0846 52.6851 50.0846 52.8273V53.4486C50.0846 53.5909 49.9694 53.7062 49.8271 53.7062Z" fill="white"/>
<path d="M37.2466 56.7035H24.3171C24.1749 56.7035 24.0596 56.5882 24.0596 56.446V55.8247C24.0596 55.6825 24.1749 55.5671 24.3171 55.5671H37.2467C37.3889 55.5671 37.5043 55.6825 37.5043 55.8247V56.446C37.5042 56.5882 37.3889 56.7035 37.2466 56.7035Z" fill="white"/>
<path d="M49.8272 56.7035H39.7282C39.5861 56.7035 39.4707 56.5882 39.4707 56.446V55.8247C39.4707 55.6825 39.5859 55.5671 39.7282 55.5671H49.8272C49.9693 55.5671 50.0847 55.6824 50.0847 55.8247V56.446C50.0847 56.5882 49.9694 56.7035 49.8272 56.7035Z" fill="white"/>
<path d="M49.8272 59.702H24.3171C24.1749 59.702 24.0596 59.5868 24.0596 59.4445V58.8232C24.0596 58.681 24.1749 58.5657 24.3171 58.5657H49.8272C49.9694 58.5657 50.0847 58.681 50.0847 58.8232V59.4445C50.0847 59.5868 49.9695 59.702 49.8272 59.702Z" fill="white"/>
<path d="M75.3152 20.8136L76.9326 30.9589L80.3503 17.4326C80.3503 17.4326 75.5605 15.1081 75.3492 15.9534C75.1379 16.7986 75.3152 20.8136 75.3152 20.8136Z" fill="#2684FF"/>
<path d="M102.503 42.6494L103.982 60.1885L88.5054 59.4488L90.2898 43.9173L102.503 42.6494Z" fill="#E6F2FF"/>
<path d="M89.4409 51.3037L90.2896 43.9173L102.503 42.6494L103.015 48.7234C100.587 51.1427 96.22 53.6513 89.4409 51.3037Z" fill="#9FC9FF"/>
<path d="M79.9507 30.8324C80.8813 32.757 80.3875 34.9208 78.8479 35.6652C77.3081 36.4097 75.3056 35.453 74.375 33.5284C73.4443 31.6037 73.9381 29.44 75.4778 28.6955C77.0176 27.951 79.0201 28.9077 79.9507 30.8324Z" fill="#8FC0FF"/>
<path d="M79.8388 39.7312C78.7316 37.2497 78.0829 34.5815 77.705 32.2425C77.624 31.7406 77.5141 31.2446 77.3948 30.7503C76.9132 28.7546 76.7851 26.6144 77.1194 24.3839C78.1953 17.2074 83.9687 11.4858 91.1572 10.4921C100.841 9.15356 109.372 16.3235 109.975 25.8201C110.971 25.1809 112.122 24.9749 113.171 25.3661C115.186 26.1168 116.058 28.7662 115.119 31.2838C114.181 33.8013 111.788 35.2336 109.774 34.483C109.494 34.3787 109.239 34.2346 109.005 34.0626C108.694 42.1953 102.469 48.8526 94.5197 49.2249C90.6322 49.4069 87.0156 48.0519 84.2077 45.6783C82.4087 44.3566 80.7107 41.7846 79.8388 39.7312Z" fill="#E6F2FF"/>
<path d="M89.7608 26.9387C89.729 27.8864 89.7218 28.811 89.6728 29.717C89.6167 30.5549 89.5249 31.7594 89.0031 32.3979C88.9255 32.5073 88.5161 32.9501 88.5061 33.6229C88.4846 34.2498 88.8154 34.8105 89.228 35.1536C90.0728 35.8642 91.1676 35.9319 92.074 35.7084C91.1492 35.5451 90.2629 35.2272 89.7471 34.6233C89.5081 34.3232 89.3497 33.9878 89.4051 33.6738C89.4462 33.3124 89.6474 33.124 89.7197 33.0146C89.9769 32.6743 90.2861 32.3198 90.4182 31.1619C90.4642 30.6648 90.4575 30.1824 90.4118 29.7038C90.32 28.7513 90.1168 27.8215 89.7608 26.9387Z" fill="#8FC0FF"/>
<path d="M95.2465 28.1907C95.2837 28.9871 95.9596 29.6024 96.7559 29.5652C97.5522 29.528 98.1676 28.8521 98.1304 28.0558C98.093 27.2595 97.4173 26.6441 96.6208 26.6813C95.8245 26.7186 95.2093 27.3944 95.2465 28.1907Z" fill="#19377D"/>
<path d="M82.9015 29.5829C82.9388 30.3793 83.6146 30.9947 84.4109 30.9573C85.2073 30.92 85.8226 30.2442 85.7854 29.4478C85.7482 28.6514 85.0723 28.0361 84.276 28.0734C83.4795 28.1108 82.8642 28.7865 82.9015 29.5829Z" fill="#19377D"/>
<path d="M97.6676 37.9648C96.1982 39.2457 94.2866 40.2461 92.388 40.4759C90.335 40.7351 88.5218 40.109 86.7742 39.0327C88.4011 40.3996 90.2857 41.0923 92.4343 40.8517C94.5264 40.5795 96.4822 39.374 97.6676 37.9648Z" fill="#8FC0FF"/>
<path d="M93.4343 24.9309C95.4687 24.3021 96.6203 24.267 97.5501 24.3802C99.5785 24.6523 100.72 25.5496 101.429 25.8602C100.575 24.2874 99.2631 23.4488 97.6777 23.2508C95.9606 23.0444 94.2812 23.8205 93.4343 24.9309Z" fill="#19377D"/>
<path d="M87.0751 25.6475C86.0322 24.7259 84.2355 24.2862 82.5862 24.8235C81.074 25.3239 79.9467 26.3985 79.4133 28.1116C80.0498 27.668 80.9921 26.5681 82.9307 25.9065C83.8183 25.6159 84.9534 25.4255 87.0751 25.6475Z" fill="#19377D"/>
<path d="M86.7763 53.1942C86.7763 53.1942 72.2112 55.0438 68.512 58.0493C64.8129 61.0548 47.011 105.213 47.011 105.213L61.8074 122.553L93.2497 122.784C93.2497 122.784 116.832 135.499 131.628 123.477C146.424 111.455 138.795 69.6091 130.241 60.5925C121.687 51.5759 106.428 51.8072 106.428 51.8072C106.428 51.8072 92.5563 61.5173 86.7763 53.1942Z" fill="#87ABFF"/>
<path d="M114.982 75.1582C114.461 77.5644 114.142 80.0079 113.915 82.4584C113.789 83.6834 113.735 84.9138 113.665 86.1438C113.628 87.3754 113.599 88.6075 113.616 89.8412C113.664 92.3062 113.799 94.7797 114.223 97.2206C114.637 99.6521 115.239 102.092 116.369 104.289C115.609 101.945 115.232 99.5361 114.959 97.1206C114.69 94.7033 114.598 92.2653 114.566 89.8284C114.516 87.3907 114.576 84.9483 114.653 82.5044C114.739 80.0602 114.851 77.6142 114.982 75.1582Z" fill="white"/>
<path d="M71.4018 73.5396C70.7363 77.1214 70.0317 80.6892 69.3155 84.2517C68.5839 87.8109 67.8274 91.3629 66.9659 94.887C66.1143 98.4127 65.1678 101.915 64.0229 105.349C63.4495 107.065 62.8089 108.759 62.0584 110.403C61.3181 112.05 60.4408 113.645 59.2642 115.039C60.6023 113.789 61.5867 112.206 62.4757 110.61C63.3376 108.992 64.0811 107.313 64.7215 105.599C65.3759 103.89 65.9371 102.149 66.4691 100.401C66.9822 98.6478 67.4516 96.8828 67.8896 95.1111C68.3072 93.3345 68.708 91.5545 69.0675 89.7667C69.4145 87.9763 69.7559 86.1853 70.0427 84.3851C70.6378 80.7892 71.1004 77.1713 71.4018 73.5396Z" fill="white"/>
<path d="M64.0828 112.558C64.1754 111.827 69.7318 111.009 71.7746 110.904C73.322 110.824 83.5802 110.481 87.0694 110.323L86.8129 111.221L86.8658 115.183L87.4387 117.809C84.3775 118.002 76.8941 118.295 75.3359 118.603C73.2542 119.015 69.6436 120.584 69.6436 120.584C69.6436 120.584 68.142 120.243 70.0503 119.42C71.5822 118.759 72.6578 117.734 73.1127 117.225C73.3747 116.933 73.0907 116.411 72.9004 116.461C67.7049 117.822 67.1706 118.048 67.1706 118.048C67.1706 118.048 61.0642 118.013 67.136 116.641C70.7757 115.818 72.0798 115.34 72.4041 114.932C72.5421 114.758 72.2954 114.166 72.0739 114.153C68.9205 113.958 63.2611 115.076 64.8114 114.342C66.0755 113.745 70.0568 113.089 71.6053 112.843C71.7002 112.827 71.8538 112.251 71.4311 112.215C68.4276 111.965 63.9968 113.238 64.0828 112.558Z" fill="#E6F2FF"/>
<path d="M114.712 104.618C113.437 104.922 112.144 105.144 110.864 105.414C108.286 105.884 105.701 106.293 103.108 106.657C100.512 106.998 97.912 107.312 95.3055 107.563C92.7091 107.821 90.0685 108.042 87.4987 108.185L87.1528 108.205L87.077 108.504C86.8563 109.376 86.7124 110.226 86.6026 111.097C86.4936 111.965 86.4483 112.84 86.4495 113.716C86.4567 114.592 86.5323 115.47 86.6765 116.337C86.8363 117.204 87.0925 118.053 87.4375 118.866L87.4674 118.936L87.5234 118.974L90.3791 120.889C91.3305 121.529 92.2855 122.163 93.2496 122.784C92.3545 122.067 91.4505 121.362 90.5427 120.662L87.8868 118.612C87.6115 117.844 87.4159 117.05 87.3084 116.238C87.2074 115.406 87.1611 114.566 87.1861 113.723C87.2139 112.882 87.2972 112.041 87.4151 111.206C87.5217 110.482 87.6629 109.751 87.8415 109.051C89.0742 109.011 90.2551 108.931 91.4646 108.843C92.7776 108.746 94.0899 108.642 95.3991 108.504C98.0178 108.233 100.631 107.907 103.231 107.491C105.831 107.072 108.418 106.564 110.98 105.959C112.257 105.632 113.535 105.318 114.792 104.922C116.058 104.566 117.299 104.122 118.536 103.682C117.258 103.993 115.997 104.35 114.712 104.618Z" fill="white"/>
<path d="M3.1165 83.1338H52.6689C54.189 83.1338 55.5583 84.0527 56.1346 85.4592L71.3077 122.495H98.7041C99.4702 122.495 100.091 123.116 100.091 123.882C100.091 124.648 99.4702 125.269 98.7041 125.269H19.6091C18.1483 125.269 16.8236 124.411 16.2259 123.078L0.276271 87.5209C-0.647745 85.4613 0.859157 83.1338 3.1165 83.1338Z" fill="#4D6DB9"/>
<path d="M75.0048 11.2148C75.0048 11.2148 70.1491 11.3714 75.2448 7.2654C80.3405 3.15948 94.0211 -1.65541 102.79 2.97539C102.79 2.97539 104.544 -0.752848 107.079 0.137351C109.614 1.02755 105.43 3.59221 105.43 3.59221C105.43 3.59221 108.668 3.4878 109.655 5.07591C110.386 6.24989 108.403 6.30122 107.32 6.24836C109.163 6.5618 116.227 11.0234 112.681 25.2682C111.421 24.9912 104.24 14.5775 104.24 14.5775C104.24 14.5775 87.8164 23.7016 89.4405 16.4465C89.4405 16.4465 72.4258 27.0646 74.8399 18.2936C74.8402 18.2935 68.2607 18.7756 75.0048 11.2148Z" fill="#19377D"/>
<path d="M112.696 25.3539C112.696 25.3539 111.335 24.876 109.873 26.0366C108.41 27.1971 108.572 31.2758 108.572 31.2758C108.572 31.2758 101.591 35.7776 102.327 16.7281C103.11 -3.53814 108.151 18.3535 108.151 18.3535L112.696 25.3539Z" fill="#19377D"/>
</svg>
